<svg width="16" height="16" viewBox="0 0 16 16" fill="none" xmlns="http://www.w3.org/2000/svg">
<g id="vuesax/bulk/bill">
<g id="bill">
<path id="Vector" opacity="0.4" d="M2.44678 1.66675V9.64675C2.44678 10.3001 2.75344 10.9201 3.28011 11.3134L6.75344 13.9134C7.49344 14.4667 8.51344 14.4667 9.25344 13.9134L12.7268 11.3134C13.2534 10.9201 13.5601 10.3001 13.5601 9.64675V1.66675H2.44678Z" fill="#652F8E"/>
<g id="Group">
<path id="Vector_2" d="M14.6668 2.16675H1.3335C1.06016 2.16675 0.833496 1.94008 0.833496 1.66675C0.833496 1.39341 1.06016 1.16675 1.3335 1.16675H14.6668C14.9402 1.16675 15.1668 1.39341 15.1668 1.66675C15.1668 1.94008 14.9402 2.16675 14.6668 2.16675Z" fill="#652F8E"/>
</g>
<g id="Group_2">
<path id="Vector_3" d="M10.6668 5.83325H5.3335C5.06016 5.83325 4.8335 5.60659 4.8335 5.33325C4.8335 5.05992 5.06016 4.83325 5.3335 4.83325H10.6668C10.9402 4.83325 11.1668 5.05992 11.1668 5.33325C11.1668 5.60659 10.9402 5.83325 10.6668 5.83325Z" fill="#652F8E"/>
</g>
<g id="Group_3">
<path id="Vector_4" d="M10.6668 9.16675H5.3335C5.06016 9.16675 4.8335 8.94008 4.8335 8.66675C4.8335 8.39341 5.06016 8.16675 5.3335 8.16675H10.6668C10.9402 8.16675 11.1668 8.39341 11.1668 8.66675C11.1668 8.94008 10.9402 9.16675 10.6668 9.16675Z" fill="#652F8E"/>
</g>
</g>
</g>
</svg>
