<svg width="16" height="16" viewBox="0 0 16 16" fill="none" xmlns="http://www.w3.org/2000/svg">
<g id="vuesax/bulk/logout">
<g id="logout">
<path id="Vector" opacity="0.4" d="M14.16 4.79836V4.79992V11.1999C14.16 12.1611 13.8617 12.8911 13.3731 13.3797C12.8845 13.8683 12.1546 14.1666 11.1933 14.1666H9.46667C8.50546 14.1666 7.77569 13.8683 7.28713 13.3791C6.79851 12.8898 6.5 12.1582 6.5 11.1933V4.79992C6.5 3.8387 6.79826 3.10877 7.28689 2.62014C7.77552 2.13151 8.50545 1.83325 9.46667 1.83325H11.2C12.1613 1.83325 12.891 2.13155 13.3787 2.61989C13.8663 3.10812 14.163 3.83752 14.16 4.79836Z" fill="#FF4423" stroke="#FF4423"/>
<g id="Vector_2">
<mask id="path-2-inside-1_5862_5941" fill="white">
<path d="M3.71329 5.41343L1.47996 7.64676C1.28663 7.84009 1.28663 8.16009 1.47996 8.35343L3.71329 10.5868C3.90663 10.7801 4.22663 10.7801 4.41996 10.5868C4.61329 10.3934 4.61329 10.0734 4.41996 9.88009L3.03996 8.50009H10.1666C10.44 8.50009 10.6666 8.27343 10.6666 8.00009C10.6666 7.72676 10.44 7.50009 10.1666 7.50009H3.03996L4.41996 6.12009C4.51996 6.02009 4.56663 5.89343 4.56663 5.76676C4.56663 5.64009 4.51996 5.50676 4.41996 5.41343C4.22663 5.21343 3.91329 5.21343 3.71329 5.41343Z"/>
</mask>
<path d="M3.71329 5.41343L1.47996 7.64676C1.28663 7.84009 1.28663 8.16009 1.47996 8.35343L3.71329 10.5868C3.90663 10.7801 4.22663 10.7801 4.41996 10.5868C4.61329 10.3934 4.61329 10.0734 4.41996 9.88009L3.03996 8.50009H10.1666C10.44 8.50009 10.6666 8.27343 10.6666 8.00009C10.6666 7.72676 10.44 7.50009 10.1666 7.50009H3.03996L4.41996 6.12009C4.51996 6.02009 4.56663 5.89343 4.56663 5.76676C4.56663 5.64009 4.51996 5.50676 4.41996 5.41343C4.22663 5.21343 3.91329 5.21343 3.71329 5.41343Z" fill="#FF4423"/>
<path d="M3.71329 5.41343L3.00619 4.70632L3.71329 5.41343ZM1.47996 7.64676L2.18707 8.35387L1.47996 7.64676ZM1.47996 8.35343L2.18707 7.64632H2.18707L1.47996 8.35343ZM3.71329 10.5868L3.00619 11.2939L3.71329 10.5868ZM4.41996 9.88009L5.12707 9.17299V9.17299L4.41996 9.88009ZM3.03996 8.50009V7.50009H0.625747L2.33285 9.2072L3.03996 8.50009ZM3.03996 7.50009L2.33285 6.79299L0.625747 8.50009H3.03996V7.50009ZM4.41996 6.12009L5.12707 6.8272V6.8272L4.41996 6.12009ZM4.41996 5.41343L3.70097 6.10845L3.71884 6.12694L3.73764 6.14448L4.41996 5.41343ZM3.00619 4.70632L0.772854 6.93965L2.18707 8.35387L4.4204 6.12053L3.00619 4.70632ZM0.772854 6.93965C0.188997 7.52351 0.188997 8.47668 0.772854 9.06053L2.18707 7.64632C2.38426 7.84351 2.38426 8.15668 2.18707 8.35387L0.772854 6.93965ZM0.772854 9.06053L3.00619 11.2939L4.4204 9.87965L2.18707 7.64632L0.772854 9.06053ZM3.00619 11.2939C3.59005 11.8777 4.54321 11.8777 5.12707 11.2939L3.71285 9.87965C3.91005 9.68246 4.22321 9.68246 4.4204 9.87965L3.00619 11.2939ZM5.12707 11.2939C5.71093 10.71 5.71093 9.75684 5.12707 9.17299L3.71285 10.5872C3.51566 10.39 3.51566 10.0768 3.71285 9.87965L5.12707 11.2939ZM5.12707 9.17299L3.74707 7.79299L2.33285 9.2072L3.71285 10.5872L5.12707 9.17299ZM3.03996 9.50009H10.1666V7.50009H3.03996V9.50009ZM10.1666 9.50009C10.9922 9.50009 11.6666 8.82571 11.6666 8.00009H9.66663C9.66663 7.72114 9.88768 7.50009 10.1666 7.50009V9.50009ZM11.6666 8.00009C11.6666 7.17448 10.9922 6.50009 10.1666 6.50009V8.50009C9.88768 8.50009 9.66663 8.27905 9.66663 8.00009H11.6666ZM10.1666 6.50009H3.03996V8.50009H10.1666V6.50009ZM3.74707 8.2072L5.12707 6.8272L3.71285 5.41299L2.33285 6.79299L3.74707 8.2072ZM5.12707 6.8272C5.42449 6.52978 5.56663 6.14433 5.56663 5.76676H3.56663C3.56663 5.64252 3.61543 5.51041 3.71285 5.41299L5.12707 6.8272ZM5.56663 5.76676C5.56663 5.41081 5.43746 4.99521 5.10228 4.68237L3.73764 6.14448C3.60246 6.01831 3.56663 5.86938 3.56663 5.76676H5.56663ZM5.13895 4.71841C4.546 4.10501 3.58996 4.12255 3.00619 4.70632L4.4204 6.12053C4.23663 6.3043 3.90725 6.32184 3.70097 6.10845L5.13895 4.71841Z" fill="#FF4423" mask="url(#path-2-inside-1_5862_5941)"/>
</g>
</g>
</g>
</svg>
